ply
format ascii 1.0
element vertex 455
property float x
property float y
property float z
end_header
0.365929 -0.002452 0.108557
0.365778 -0.001771 0.098030
0.365904 -0.001037 0.103627
0.365724 -0.001035 0.110807
0.365299 -0.000173 0.112835
0.365258 -0.000178 0.116796
0.365104 0.001658 0.097276
0.365481 0.001169 0.100673
0.365147 0.001402 0.103628
0.365074 0.000148 0.108220
0.365097 0.001583 0.111616
0.365588 0.001231 0.112906
0.364995 0.003442 0.095878
0.364511 0.003933 0.099520
0.365170 0.002412 0.103716
0.364975 0.003515 0.113413
0.365217 0.002943 0.114728
0.365342 0.002371 0.117454
0.364963 0.005873 0.103379
0.365162 0.004848 0.105819
0.364965 0.004180 0.109949
0.364966 0.004106 0.111108
0.364743 0.004592 0.113598
0.365078 0.004535 0.115705
0.365104 0.005698 0.116938
0.365470 0.006960 0.094410
0.365629 0.007621 0.098269
0.365096 0.006091 0.101162
0.365212 0.007718 0.107630
0.365543 0.007118 0.109546
0.365227 0.007739 0.110203
0.365576 0.007188 0.115623
0.364835 0.007247 0.116555
0.365943 0.008798 0.094925
0.365495 0.008782 0.098202
0.365800 0.009636 0.113790
0.365716 0.009612 0.116892
0.367161 -0.004156 0.097785
0.367267 -0.003435 0.098987
0.366495 -0.002662 0.103760
0.366698 -0.002169 0.105219
0.366474 -0.002070 0.108508
0.367321 -0.003489 0.111275
0.366128 -0.002108 0.112016
0.367357 -0.002527 0.117992
0.366800 -0.002071 0.118638
0.366096 -0.001310 0.093402
0.366275 -0.001566 0.097846
0.366362 -0.001689 0.100958
0.366584 -0.001682 0.111428
0.366102 -0.001155 0.117577
0.367324 0.007329 0.118093
0.366076 0.009912 0.095714
0.366375 0.009377 0.100611
0.366072 0.008570 0.110130
0.366533 0.009685 0.113635
0.366005 0.008108 0.115499
0.367245 0.008233 0.118093
0.367346 0.011954 0.096635
0.366035 0.010540 0.106093
0.367669 0.011222 0.110526
0.366641 0.010900 0.112444
0.367992 0.011844 0.116838
0.367883 0.012139 0.107575
0.367749 0.012236 0.114247
0.369793 -0.006467 0.094728
0.368660 -0.006092 0.096389
0.369697 -0.006568 0.103345
0.369940 -0.006535 0.107547
0.369989 -0.006893 0.113723
0.369161 -0.005897 0.098212
0.368853 -0.005315 0.102197
0.368213 -0.004380 0.105797
0.369774 -0.005973 0.106604
0.368714 -0.004882 0.109020
0.369548 -0.005715 0.111295
0.369207 -0.005498 0.112354
0.369399 -0.005875 0.115721
0.368668 -0.005786 0.116056
0.369659 -0.005506 0.118062
0.369067 -0.002628 0.118843
0.369395 0.007315 0.118093
0.369863 0.009320 0.118093
0.368062 0.011871 0.113254
0.368152 0.011988 0.116664
0.368654 0.011573 0.118228
0.368606 0.012836 0.095941
0.368514 0.012775 0.098713
0.368205 0.012556 0.100947
0.368376 0.012212 0.105235
0.369159 0.012995 0.109421
0.368047 0.012445 0.110462
0.368442 0.012278 0.113736
0.369095 0.013180 0.114243
0.369779 0.013659 0.116594
0.371751 -0.008352 0.107811
0.371921 -0.008552 0.112579
0.370918 -0.006893 0.095881
0.371331 -0.007177 0.099940
0.371440 -0.007234 0.102307
0.370754 -0.007278 0.105966
0.371207 -0.007126 0.109056
0.371587 -0.007676 0.110333
0.370980 -0.007410 0.114399
0.370932 -0.007135 0.117003
0.370320 -0.005899 0.118122
0.370543 -0.002608 0.118093
0.371865 0.000231 0.118093
0.371254 0.013145 0.118605
0.370563 0.015139 0.096037
0.371183 0.015305 0.098239
0.370641 0.015100 0.100382
0.370635 0.014260 0.102049
0.370489 0.014157 0.105304
0.370930 0.015609 0.107694
0.370669 0.015296 0.110270
0.371558 0.015235 0.118258
0.373840 -0.008348 0.094897
0.373127 -0.008158 0.096048
0.373776 -0.008332 0.098044
0.373495 -0.008257 0.100360
0.373325 -0.008695 0.102377
0.373522 -0.008264 0.104258
0.373857 -0.008354 0.106157
0.372938 -0.008107 0.109066
0.373048 -0.008500 0.114996
0.373998 -0.008730 0.116819
0.372211 -0.007710 0.095443
0.372892 -0.007911 0.098907
0.372403 -0.007964 0.105683
0.372215 -0.007397 0.117740
0.373357 -0.007737 0.118225
0.372962 -0.002345 0.118093
0.372301 0.002286 0.118093
0.372133 0.011563 0.118093
0.372455 0.015646 0.099432
0.372053 0.015188 0.102546
0.372096 0.015208 0.104105
0.372878 0.015615 0.108133
0.373198 0.015846 0.111465
0.372564 0.015427 0.112486
0.372446 0.015644 0.114346
0.373999 0.016061 0.097312
0.373883 0.016030 0.100522
0.373956 0.016049 0.104965
0.372788 0.016276 0.113713
0.373053 0.016229 0.114667
0.374318 -0.008478 0.094696
0.374371 -0.008492 0.097838
0.374472 -0.008538 0.101533
0.375901 -0.008902 0.104483
0.374545 -0.008539 0.106031
0.374712 -0.008584 0.108109
0.374338 -0.008483 0.111771
0.375145 -0.008700 0.113327
0.374955 -0.009565 0.115200
0.374101 -0.008892 0.116229
0.375576 -0.006083 0.118093
0.375496 0.002722 0.118093
0.374163 0.005309 0.118093
0.375989 0.007423 0.118093
0.374936 0.015787 0.118201
0.375111 0.016379 0.095824
0.374044 0.016073 0.096340
0.375681 0.016571 0.098025
0.375898 0.016590 0.101754
0.374456 0.016464 0.102741
0.375994 0.016599 0.104413
0.374178 0.016109 0.106815
0.374645 0.016480 0.108655
0.374140 0.016099 0.110606
0.374858 0.016291 0.112063
0.375081 0.016519 0.114257
0.377648 -0.009076 0.093560
0.377687 -0.009079 0.095183
0.376660 -0.008989 0.097714
0.376107 -0.008949 0.099410
0.377936 -0.009101 0.100806
0.377709 -0.009081 0.104145
0.376114 -0.008960 0.106776
0.376879 -0.009251 0.108838
0.377726 -0.009392 0.111475
0.376178 -0.008977 0.112081
0.376075 -0.009362 0.114525
0.377606 -0.009072 0.116119
0.376452 -0.007583 0.119091
0.377545 -0.002195 0.118093
0.376151 0.003291 0.118093
0.376894 0.004738 0.118093
0.377051 0.011299 0.118093
0.376568 0.015749 0.119066
0.377345 0.016718 0.096195
0.376522 0.016645 0.099200
0.377727 0.016829 0.100859
0.377807 0.016759 0.102102
0.376236 0.016661 0.104701
0.377154 0.016725 0.107483
0.376964 0.016684 0.108264
0.376702 0.016705 0.111514
0.377585 0.016739 0.113959
0.377071 0.016840 0.114972
0.376396 0.016781 0.117256
0.378564 -0.009108 0.093374
0.378810 -0.009178 0.095462
0.379147 -0.009135 0.097411
0.379218 -0.009100 0.099908
0.378472 -0.009148 0.101372
0.379046 -0.009684 0.103221
0.378547 -0.009141 0.109732
0.379906 -0.009644 0.110239
0.378228 -0.009893 0.112088
0.379908 -0.009275 0.114673
0.379054 -0.007535 0.118796
0.379651 -0.004341 0.118093
0.379069 -0.002279 0.118093
0.379289 0.016708 0.095718
0.379429 0.016695 0.096594
0.379362 0.016701 0.099532
0.379857 0.016658 0.100685
0.379650 0.016800 0.102620
0.378260 0.016798 0.104741
0.379150 0.016720 0.106216
0.379684 0.016673 0.108435
0.378606 0.016768 0.111700
0.379524 0.016864 0.113061
0.379534 0.016686 0.114692
0.380678 -0.008917 0.093684
0.380091 -0.008968 0.095727
0.380446 -0.008937 0.097804
0.380227 -0.008957 0.098265
0.380239 -0.009304 0.100909
0.381913 -0.008709 0.103581
0.381454 -0.008678 0.105178
0.381375 -0.008855 0.108542
0.381548 -0.008840 0.111250
0.381753 -0.009437 0.114324
0.380921 -0.008895 0.116574
0.381872 -0.007740 0.118489
0.381599 -0.002004 0.118093
0.381262 0.004550 0.118093
0.380136 0.015840 0.118358
0.381671 0.016289 0.095403
0.380168 0.016651 0.096253
0.381063 0.016552 0.100306
0.381868 0.016236 0.102817
0.381827 0.016247 0.105314
0.380682 0.016576 0.106967
0.380780 0.016906 0.109908
0.381767 0.017078 0.111952
0.380017 0.017261 0.113367
0.381435 0.017272 0.114005
0.380273 0.016632 0.117343
0.381328 0.016874 0.118044
0.382161 -0.008488 0.095110
0.382921 -0.008260 0.097153
0.382986 -0.008344 0.098089
0.383234 -0.008201 0.101561
0.382948 -0.008717 0.102324
0.382015 -0.008528 0.104934
0.383481 -0.008670 0.106081
0.382438 -0.008432 0.109446
0.382156 -0.008490 0.111295
0.382833 -0.008280 0.113822
0.383114 -0.008194 0.114108
0.383068 -0.008592 0.116518
0.382538 -0.008259 0.118357
0.383739 -0.007858 0.095354
0.383681 -0.007885 0.099741
0.383769 -0.007844 0.114850
0.382505 -0.007502 0.118093
0.383284 -0.005883 0.118093
0.382576 0.004305 0.118093
0.382131 0.007470 0.118093
0.382580 0.009586 0.118093
0.382720 0.013834 0.118973
0.383613 0.015767 0.093911
0.383093 0.015907 0.095078
0.382737 0.015998 0.098424
0.383152 0.015804 0.100519
0.382750 0.015992 0.105866
0.383336 0.015715 0.110428
0.383477 0.015946 0.113291
0.383682 0.015803 0.114139
0.383560 0.015795 0.117517
0.382529 0.016058 0.097329
0.383879 0.016304 0.104545
0.382724 0.016006 0.107032
0.382645 0.016037 0.108339
0.382946 0.016318 0.111739
0.383481 0.016493 0.112756
0.382388 0.016907 0.114340
0.382487 0.016096 0.117251
0.384959 -0.008250 0.113894
0.384976 -0.008049 0.115582
0.384473 -0.007516 0.095615
0.384161 -0.007800 0.096138
0.384317 -0.007589 0.098092
0.384739 -0.007392 0.100522
0.384639 -0.007823 0.102675
0.384037 -0.007719 0.107318
0.385302 -0.007989 0.109224
0.384455 -0.007873 0.111717
0.385098 -0.007907 0.112669
0.385035 -0.007465 0.115745
0.385992 -0.007136 0.116214
0.384463 -0.007318 0.118086
0.385999 -0.004818 0.119025
0.385562 -0.002859 0.118093
0.384824 -0.000230 0.118093
0.385135 0.006852 0.118093
0.385812 0.014371 0.095417
0.384688 0.015085 0.097752
0.384059 0.015378 0.099003
0.385468 0.014551 0.101787
0.384553 0.015151 0.102082
0.385714 0.015454 0.107838
0.385357 0.014628 0.111657
0.385910 0.014254 0.112179
0.385841 0.014752 0.115266
0.384509 0.015904 0.116896
0.385444 0.014371 0.118768
0.384434 0.016100 0.112197
0.384028 0.016171 0.117893
0.387563 -0.006409 0.095317
0.386740 -0.006808 0.100292
0.386218 -0.007098 0.102575
0.386842 -0.006419 0.104533
0.387684 -0.006020 0.106527
0.387245 -0.006225 0.109772
0.387072 -0.006091 0.112909
0.386542 -0.006129 0.114241
0.386170 -0.006386 0.117776
0.387469 -0.005524 0.104357
0.387497 -0.005460 0.108437
0.387172 -0.005948 0.113679
0.387766 -0.005224 0.115744
0.387404 -0.005047 0.118267
0.386852 -0.003582 0.118983
0.387554 0.006120 0.118858
0.387235 0.008281 0.118093
0.386866 0.010076 0.119063
0.387689 0.012993 0.097957
0.387441 0.013437 0.099080
0.387236 0.013119 0.100453
0.386317 0.013956 0.102172
0.386830 0.013761 0.106745
0.387660 0.012778 0.109183
0.387947 0.013682 0.111203
0.387676 0.013967 0.113693
0.386487 0.013836 0.114459
0.387596 0.013444 0.117615
0.386129 0.013967 0.118814
0.387014 0.014395 0.097674
0.386192 0.014384 0.103717
0.386534 0.014526 0.106971
0.386899 0.014055 0.110353
0.386253 0.014670 0.114510
0.389447 -0.004093 0.094561
0.388236 -0.004622 0.099447
0.388428 -0.004258 0.105876
0.388587 -0.004331 0.107252
0.388068 -0.004669 0.108213
0.388382 -0.005016 0.110856
0.388545 -0.004725 0.113354
0.388245 -0.004935 0.114158
0.388551 -0.004452 0.117905
0.389450 -0.003235 0.094292
0.389160 -0.003126 0.101517
0.389149 -0.003537 0.103708
0.389545 -0.002562 0.105249
0.389662 -0.003024 0.106872
0.388841 -0.003844 0.111315
0.389190 -0.003281 0.113834
0.388901 -0.003759 0.114012
0.388952 -0.003659 0.117438
0.388276 -0.003036 0.118544
0.389630 -0.001395 0.118027
0.388738 0.001138 0.119066
0.389202 0.002826 0.118536
0.388960 0.006442 0.119058
0.389740 0.009769 0.109020
0.389702 0.009849 0.111438
0.389913 0.009397 0.113588
0.389970 0.008542 0.118001
0.388527 0.011827 0.101815
0.388998 0.011360 0.105813
0.389443 0.010406 0.106640
0.388756 0.011421 0.109290
0.389502 0.010280 0.110273
0.388528 0.011715 0.114930
0.389987 0.010546 0.116152
0.388678 0.011339 0.118386
0.388005 0.012349 0.103096
0.388644 0.012157 0.107002
0.388681 0.012298 0.110854
0.388354 0.012000 0.112008
0.388228 0.013015 0.114684
0.388265 0.012056 0.116245
0.390266 -0.002402 0.109625
0.390179 -0.003328 0.114152
0.391475 -0.000294 0.095170
0.390011 -0.001898 0.097141
0.391004 -0.000816 0.101165
0.390109 -0.001757 0.103073
0.390824 -0.000703 0.104166
0.390664 -0.000965 0.107371
0.390592 -0.000030 0.108510
0.390377 -0.000746 0.110349
0.391122 -0.000162 0.113552
0.391407 -0.000362 0.115925
0.391285 -0.000927 0.116732
0.391115 0.001918 0.093174
0.391392 0.001446 0.097553
0.391330 0.001313 0.100057
0.391497 0.001672 0.102722
0.391019 0.001520 0.106523
0.391557 0.001800 0.109097
0.390978 0.001357 0.111099
0.390991 0.001192 0.112776
0.391866 0.001231 0.117567
0.390806 0.001572 0.118485
0.391413 0.003029 0.095976
0.391575 0.003740 0.104151
0.391159 0.003104 0.107661
0.391573 0.003777 0.108089
0.391234 0.003709 0.113406
0.391871 0.003988 0.115355
0.391837 0.003680 0.116103
0.391508 0.004814 0.095166
0.391094 0.005304 0.105005
0.391197 0.004132 0.109498
0.391480 0.004345 0.111451
0.391139 0.004786 0.113345
0.391054 0.005761 0.114061
0.391367 0.005912 0.116191
0.391041 0.005108 0.118351
0.390930 0.007649 0.101020
0.391191 0.007883 0.103852
0.391011 0.006210 0.106092
0.390605 0.007649 0.109268
0.391155 0.006732 0.110791
0.390883 0.006613 0.112730
0.390947 0.007491 0.115257
0.391591 0.006615 0.117318
0.391111 0.008939 0.094418
0.391245 0.008009 0.099608
0.390769 0.009157 0.100570
0.390006 0.009353 0.104675
0.390406 0.008988 0.106967
0.390105 0.008986 0.109426
0.390127 0.009041 0.110037
0.390425 0.008299 0.113044
0.390726 0.008546 0.116444
0.390121 0.010234 0.115613
0.392128 0.003025 0.101011
